<?xml version="1.0" encoding="UTF-8"?>
<svg xmlns="http://www.w3.org/2000/svg" width="1280" height="720" viewBox="0 0 1280 720" role="img">
<title>Justiça do slowdown por cenário — média e IC 95%</title>
<rect width="100%" height="100%" fill="#ffffff"/>
<text x="640.0" y="38" text-anchor="middle" font-family="sans-serif" font-size="24" font-weight="bold">Justiça do slowdown por cenário</text>
<text x="640.0" y="66" text-anchor="middle" font-family="sans-serif" font-size="15" fill="#555">Média e intervalo de confiança de 95% entre seeds</text>
<line x1="105.0" y1="565.00" x2="1245.0" y2="565.00" stroke="#dddddd" stroke-width="1"/>
<text x="95.0" y="570.00" text-anchor="end" font-family="sans-serif" font-size="13">0.0</text>
<line x1="105.0" y1="471.00" x2="1245.0" y2="471.00" stroke="#dddddd" stroke-width="1"/>
<text x="95.0" y="476.00" text-anchor="end" font-family="sans-serif" font-size="13">20.0</text>
<line x1="105.0" y1="377.00" x2="1245.0" y2="377.00" stroke="#dddddd" stroke-width="1"/>
<text x="95.0" y="382.00" text-anchor="end" font-family="sans-serif" font-size="13">40.0</text>
<line x1="105.0" y1="283.00" x2="1245.0" y2="283.00" stroke="#dddddd" stroke-width="1"/>
<text x="95.0" y="288.00" text-anchor="end" font-family="sans-serif" font-size="13">60.0</text>
<line x1="105.0" y1="189.00" x2="1245.0" y2="189.00" stroke="#dddddd" stroke-width="1"/>
<text x="95.0" y="194.00" text-anchor="end" font-family="sans-serif" font-size="13">80.0</text>
<line x1="105.0" y1="95.00" x2="1245.0" y2="95.00" stroke="#dddddd" stroke-width="1"/>
<text x="95.0" y="100.00" text-anchor="end" font-family="sans-serif" font-size="13">100.0</text>
<line x1="105.0" y1="95.0" x2="105.0" y2="565.0" stroke="#333"/>
<line x1="105.0" y1="565.0" x2="1245.0" y2="565.0" stroke="#333"/>
<text transform="translate(28 330.00) rotate(-90)" text-anchor="middle" font-family="sans-serif" font-size="15">Índice de Jain (%)</text>
<rect x="137.35" y="505.10" width="53.58" height="59.90" fill="#4472C4"/>
<line x1="164.14" y1="503.72" x2="164.14" y2="506.49" stroke="#111" stroke-width="1.5"/>
<line x1="156.14" y1="503.72" x2="172.14" y2="503.72" stroke="#111" stroke-width="1.5"/>
<line x1="156.14" y1="506.49" x2="172.14" y2="506.49" stroke="#111" stroke-width="1.5"/>
<rect x="192.93" y="199.54" width="53.58" height="365.46" fill="#ED7D31"/>
<line x1="219.71" y1="197.32" x2="219.71" y2="201.75" stroke="#111" stroke-width="1.5"/>
<line x1="211.71" y1="197.32" x2="227.71" y2="197.32" stroke="#111" stroke-width="1.5"/>
<line x1="211.71" y1="201.75" x2="227.71" y2="201.75" stroke="#111" stroke-width="1.5"/>
<rect x="248.50" y="506.75" width="53.58" height="58.25" fill="#70AD47"/>
<line x1="275.29" y1="505.31" x2="275.29" y2="508.20" stroke="#111" stroke-width="1.5"/>
<line x1="267.29" y1="505.31" x2="283.29" y2="505.31" stroke="#111" stroke-width="1.5"/>
<line x1="267.29" y1="508.20" x2="283.29" y2="508.20" stroke="#111" stroke-width="1.5"/>
<rect x="304.08" y="391.23" width="53.58" height="173.77" fill="#A64D79"/>
<line x1="330.86" y1="387.15" x2="330.86" y2="395.31" stroke="#111" stroke-width="1.5"/>
<line x1="322.86" y1="387.15" x2="338.86" y2="387.15" stroke="#111" stroke-width="1.5"/>
<line x1="322.86" y1="395.31" x2="338.86" y2="395.31" stroke="#111" stroke-width="1.5"/>
<text x="247.50" y="590.00" text-anchor="middle" font-family="sans-serif" font-size="14">Equilibrado</text>
<rect x="422.35" y="268.65" width="53.58" height="296.35" fill="#4472C4"/>
<line x1="449.14" y1="267.85" x2="449.14" y2="269.46" stroke="#111" stroke-width="1.5"/>
<line x1="441.14" y1="267.85" x2="457.14" y2="267.85" stroke="#111" stroke-width="1.5"/>
<line x1="441.14" y1="269.46" x2="457.14" y2="269.46" stroke="#111" stroke-width="1.5"/>
<rect x="477.93" y="132.34" width="53.58" height="432.66" fill="#ED7D31"/>
<line x1="504.71" y1="131.97" x2="504.71" y2="132.71" stroke="#111" stroke-width="1.5"/>
<line x1="496.71" y1="131.97" x2="512.71" y2="131.97" stroke="#111" stroke-width="1.5"/>
<line x1="496.71" y1="132.71" x2="512.71" y2="132.71" stroke="#111" stroke-width="1.5"/>
<rect x="533.50" y="284.31" width="53.58" height="280.69" fill="#70AD47"/>
<line x1="560.29" y1="283.34" x2="560.29" y2="285.28" stroke="#111" stroke-width="1.5"/>
<line x1="552.29" y1="283.34" x2="568.29" y2="283.34" stroke="#111" stroke-width="1.5"/>
<line x1="552.29" y1="285.28" x2="568.29" y2="285.28" stroke="#111" stroke-width="1.5"/>
<rect x="589.08" y="130.03" width="53.58" height="434.97" fill="#A64D79"/>
<line x1="615.86" y1="129.66" x2="615.86" y2="130.40" stroke="#111" stroke-width="1.5"/>
<line x1="607.86" y1="129.66" x2="623.86" y2="129.66" stroke="#111" stroke-width="1.5"/>
<line x1="607.86" y1="130.40" x2="623.86" y2="130.40" stroke="#111" stroke-width="1.5"/>
<text x="532.50" y="590.00" text-anchor="middle" font-family="sans-serif" font-size="14">I/O-bound</text>
<rect x="707.35" y="282.34" width="53.58" height="282.66" fill="#4472C4"/>
<line x1="734.14" y1="281.55" x2="734.14" y2="283.12" stroke="#111" stroke-width="1.5"/>
<line x1="726.14" y1="281.55" x2="742.14" y2="281.55" stroke="#111" stroke-width="1.5"/>
<line x1="726.14" y1="283.12" x2="742.14" y2="283.12" stroke="#111" stroke-width="1.5"/>
<rect x="762.93" y="116.23" width="53.58" height="448.77" fill="#ED7D31"/>
<line x1="789.71" y1="116.08" x2="789.71" y2="116.38" stroke="#111" stroke-width="1.5"/>
<line x1="781.71" y1="116.08" x2="797.71" y2="116.08" stroke="#111" stroke-width="1.5"/>
<line x1="781.71" y1="116.38" x2="797.71" y2="116.38" stroke="#111" stroke-width="1.5"/>
<rect x="818.50" y="291.20" width="53.58" height="273.80" fill="#70AD47"/>
<line x1="845.29" y1="290.42" x2="845.29" y2="291.99" stroke="#111" stroke-width="1.5"/>
<line x1="837.29" y1="290.42" x2="853.29" y2="290.42" stroke="#111" stroke-width="1.5"/>
<line x1="837.29" y1="291.99" x2="853.29" y2="291.99" stroke="#111" stroke-width="1.5"/>
<rect x="874.08" y="189.48" width="53.58" height="375.52" fill="#A64D79"/>
<line x1="900.86" y1="188.80" x2="900.86" y2="190.16" stroke="#111" stroke-width="1.5"/>
<line x1="892.86" y1="188.80" x2="908.86" y2="188.80" stroke="#111" stroke-width="1.5"/>
<line x1="892.86" y1="190.16" x2="908.86" y2="190.16" stroke="#111" stroke-width="1.5"/>
<text x="817.50" y="590.00" text-anchor="middle" font-family="sans-serif" font-size="14">CPU-bound</text>
<rect x="992.35" y="504.49" width="53.58" height="60.51" fill="#4472C4"/>
<line x1="1019.14" y1="502.73" x2="1019.14" y2="506.26" stroke="#111" stroke-width="1.5"/>
<line x1="1011.14" y1="502.73" x2="1027.14" y2="502.73" stroke="#111" stroke-width="1.5"/>
<line x1="1011.14" y1="506.26" x2="1027.14" y2="506.26" stroke="#111" stroke-width="1.5"/>
<rect x="1047.92" y="197.29" width="53.58" height="367.71" fill="#ED7D31"/>
<line x1="1074.71" y1="194.58" x2="1074.71" y2="199.99" stroke="#111" stroke-width="1.5"/>
<line x1="1066.71" y1="194.58" x2="1082.71" y2="194.58" stroke="#111" stroke-width="1.5"/>
<line x1="1066.71" y1="199.99" x2="1082.71" y2="199.99" stroke="#111" stroke-width="1.5"/>
<rect x="1103.50" y="505.38" width="53.58" height="59.62" fill="#70AD47"/>
<line x1="1130.29" y1="503.83" x2="1130.29" y2="506.93" stroke="#111" stroke-width="1.5"/>
<line x1="1122.29" y1="503.83" x2="1138.29" y2="503.83" stroke="#111" stroke-width="1.5"/>
<line x1="1122.29" y1="506.93" x2="1138.29" y2="506.93" stroke="#111" stroke-width="1.5"/>
<rect x="1159.08" y="387.79" width="53.58" height="177.21" fill="#A64D79"/>
<line x1="1185.86" y1="382.70" x2="1185.86" y2="392.87" stroke="#111" stroke-width="1.5"/>
<line x1="1177.86" y1="382.70" x2="1193.86" y2="382.70" stroke="#111" stroke-width="1.5"/>
<line x1="1177.86" y1="392.87" x2="1193.86" y2="392.87" stroke="#111" stroke-width="1.5"/>
<text x="1102.50" y="590.00" text-anchor="middle" font-family="sans-serif" font-size="14">Prioridades</text>
<rect x="105.00" y="650.00" width="18" height="18" fill="#4472C4"/>
<text x="131.00" y="664.00" font-family="sans-serif" font-size="13">FCFS</text>
<rect x="390.00" y="650.00" width="18" height="18" fill="#ED7D31"/>
<text x="416.00" y="664.00" font-family="sans-serif" font-size="13">Round Robin</text>
<rect x="675.00" y="650.00" width="18" height="18" fill="#70AD47"/>
<text x="701.00" y="664.00" font-family="sans-serif" font-size="13">Prioridade</text>
<rect x="960.00" y="650.00" width="18" height="18" fill="#A64D79"/>
<text x="986.00" y="664.00" font-family="sans-serif" font-size="13">SJF Preditivo + Aging</text>
</svg>
